<svg xmlns="http://www.w3.org/2000/svg" xmlns:xlink="http://www.w3.org/1999/xlink" viewBox="0 0 286.27 192.12"><defs><style>.cls-1,.cls-3,.cls-7,.cls-8,.cls-9{opacity:0.4;}.cls-1{fill:url(#radial-gradient);}.cls-2{font-size:28.51px;}.cls-2,.cls-4,.cls-6{font-family:MyriadPro-Regular, Myriad Pro;}.cls-3{fill:url(#radial-gradient-2);}.cls-4{font-size:24px;}.cls-5{fill:none;stroke:#000;stroke-miterlimit:10;stroke-width:3px;}.cls-6{font-size:26px;}.cls-7{fill:url(#radial-gradient-3);}.cls-8{fill:url(#radial-gradient-4);}.cls-9{fill:url(#radial-gradient-5);}</style><radialGradient id="radial-gradient" cx="64.99" cy="34.97" fx="85.63229783108389" fy="20.07080950858898" r="33.88" gradientUnits="userSpaceOnUse"><stop offset="0.09" stop-color="#fff"/><stop offset="0.93" stop-color="red"/></radialGradient><radialGradient id="radial-gradient-2" cx="63.48" cy="123.03" fx="76.87031146973044" fy="113.36547572369518" r="21.98" gradientUnits="userSpaceOnUse"><stop offset="0.09" stop-color="#fff"/><stop offset="0.77"/></radialGradient><radialGradient id="radial-gradient-3" cx="145.85" cy="158.24" fx="166.4943270137758" fy="143.3374578346763" r="33.88" xlink:href="#radial-gradient"/><radialGradient id="radial-gradient-4" cx="229.07" cy="33.88" fx="249.715405019655" fy="18.981326671603625" r="33.88" xlink:href="#radial-gradient"/><radialGradient id="radial-gradient-5" cx="227.56" cy="121.94" fx="240.95341865830028" fy="112.27599288670943" r="21.98" xlink:href="#radial-gradient-2"/></defs><g id="Layer_2" data-name="Layer 2"><g id="Layer_1-2" data-name="Layer 1"><circle class="cls-1" cx="64.99" cy="34.97" r="33.88"/><text class="cls-2" transform="translate(55.11 44.37)">O</text><circle class="cls-3" cx="63.48" cy="123.03" r="21.98"/><text class="cls-4" transform="translate(54.48 131.08)">C</text><line class="cls-5" x1="19.15" y1="145.98" x2="34.6" y2="133.28"/><line class="cls-5" x1="91.35" y1="134.05" x2="106.4" y2="147.22"/><line class="cls-5" x1="69.45" y1="74.92" x2="69.45" y2="94.92"/><line class="cls-5" x1="57.45" y1="74.92" x2="57.45" y2="94.92"/><text class="cls-6" transform="translate(0 163.35)">R</text><circle class="cls-7" cx="145.85" cy="158.24" r="33.88"/><text class="cls-2" transform="translate(135.97 167.63)">O</text><circle class="cls-8" cx="229.07" cy="33.88" r="33.88"/><text class="cls-2" transform="translate(219.19 43.28)">O</text><circle class="cls-9" cx="227.56" cy="121.94" r="21.98"/><text class="cls-4" transform="translate(218.57 129.99)">C</text><line class="cls-5" x1="183.23" y1="144.89" x2="198.68" y2="132.19"/><line class="cls-5" x1="233.53" y1="73.83" x2="233.53" y2="93.83"/><line class="cls-5" x1="221.53" y1="73.83" x2="221.53" y2="93.83"/><line class="cls-5" x1="253.09" y1="133.44" x2="268.14" y2="146.61"/><text class="cls-6" transform="translate(272.28 161.66)">R</text></g></g></svg>