<svg xmlns="http://www.w3.org/2000/svg" xmlns:xlink="http://www.w3.org/1999/xlink" viewBox="0 0 248.85 152.26"><defs><style>.cls-1,.cls-4,.cls-6,.cls-7{opacity:0.4;}.cls-1{fill:url(#radial-gradient);}.cls-2{font-size:24px;}.cls-2,.cls-5,.cls-8{font-family:MyriadPro-Regular, Myriad Pro;}.cls-3{fill:none;stroke:#000;stroke-miterlimit:10;stroke-width:3px;}.cls-4{fill:url(#radial-gradient-2);}.cls-5{font-size:18px;}.cls-6{fill:url(#radial-gradient-3);}.cls-7{fill:url(#radial-gradient-4);}.cls-8{font-size:26px;}</style><radialGradient id="radial-gradient" cx="84.97" cy="73.54" fx="98.35945500363853" fy="63.8740233234122" r="21.98" gradientUnits="userSpaceOnUse"><stop offset="0.09" stop-color="#fff"/><stop offset="0.77"/></radialGradient><radialGradient id="radial-gradient-2" cx="16.68" cy="73.66" fx="26.843482823069678" fy="66.32659002677573" r="16.68" gradientUnits="userSpaceOnUse"><stop offset="0.09" stop-color="#fff"/><stop offset="0.77" stop-color="#999"/></radialGradient><radialGradient id="radial-gradient-3" cx="162.45" cy="73.5" fx="175.8429647812219" fy="63.83147013193313" r="21.98" xlink:href="#radial-gradient"/><radialGradient id="radial-gradient-4" cx="232.16" cy="73.62" fx="242.32699260065368" fy="66.28403683529686" r="16.68" xlink:href="#radial-gradient-2"/></defs><g id="Layer_2" data-name="Layer 2"><g id="Layer_1-2" data-name="Layer 1"><circle class="cls-1" cx="84.97" cy="73.54" r="21.98"/><text class="cls-2" transform="translate(75.97 81.59)">C</text><line class="cls-3" x1="85.36" y1="26.64" x2="85.36" y2="46.64"/><line class="cls-3" x1="84.86" y1="102.64" x2="84.86" y2="122.64"/><circle class="cls-4" cx="16.68" cy="73.66" r="16.68"/><text class="cls-5" transform="translate(10.93 80.13)">H</text><line class="cls-3" x1="38.36" y1="73.64" x2="58.36" y2="73.64"/><circle class="cls-6" cx="162.45" cy="73.5" r="21.98"/><text class="cls-2" transform="translate(153.46 81.55)">C</text><line class="cls-3" x1="162.85" y1="26.6" x2="162.85" y2="46.6"/><line class="cls-3" x1="162.35" y1="102.6" x2="162.35" y2="122.6"/><circle class="cls-7" cx="232.16" cy="73.62" r="16.68"/><text class="cls-5" transform="translate(226.41 80.08)">H</text><line class="cls-3" x1="111.36" y1="74.14" x2="131.36" y2="74.14"/><line class="cls-3" x1="189.36" y1="73.14" x2="209.36" y2="73.14"/><text class="cls-8" transform="translate(156.83 145.76)">R</text><text class="cls-8" transform="translate(78.83 145.76)">R</text><text class="cls-8" transform="translate(156.83 21.76)">R</text><text class="cls-8" transform="translate(78.83 21.76)">R</text></g></g></svg>