<svg xmlns="http://www.w3.org/2000/svg" xmlns:xlink="http://www.w3.org/1999/xlink" viewBox="0 0 446.67 232.13"><defs><style>.cls-1,.cls-10,.cls-14,.cls-15,.cls-16,.cls-18,.cls-19,.cls-20,.cls-3,.cls-5,.cls-6,.cls-8,.cls-9{opacity:0.4;}.cls-1{fill:url(#radial-gradient);}.cls-2{font-size:24px;}.cls-11,.cls-12,.cls-13,.cls-2,.cls-4,.cls-7{font-family:MyriadPro-Regular, Myriad Pro;}.cls-3{fill:url(#radial-gradient-2);}.cls-4{font-size:28.51px;}.cls-5{fill:url(#radial-gradient-3);}.cls-6{fill:url(#radial-gradient-4);}.cls-7{font-size:18px;}.cls-8{fill:url(#radial-gradient-5);}.cls-9{fill:url(#radial-gradient-6);}.cls-10{fill:url(#radial-gradient-7);}.cls-11{font-size:26px;}.cls-12{font-size:25.44px;}.cls-13{font-size:25.68px;}.cls-14{fill:url(#radial-gradient-8);}.cls-15{fill:url(#radial-gradient-9);}.cls-16{fill:url(#radial-gradient-10);}.cls-17{fill:none;stroke:#000;stroke-miterlimit:10;stroke-width:3px;}.cls-18{fill:url(#radial-gradient-11);}.cls-19{fill:url(#radial-gradient-12);}.cls-20{fill:url(#radial-gradient-13);}</style><radialGradient id="radial-gradient" cx="314.71" cy="120.88" fx="328.1002393299794" fy="111.21847300771073" r="21.98" gradientUnits="userSpaceOnUse"><stop offset="0.09" stop-color="#fff"/><stop offset="0.77"/></radialGradient><radialGradient id="radial-gradient-2" cx="97.65" cy="46.39" fx="118.29044901127234" fy="31.48761807257589" r="33.88" gradientUnits="userSpaceOnUse"><stop offset="0.09" stop-color="#fff"/><stop offset="0.93" stop-color="red"/></radialGradient><radialGradient id="radial-gradient-3" cx="45.65" cy="46.39" fx="66.29044901127234" r="33.88" xlink:href="#radial-gradient-2"/><radialGradient id="radial-gradient-4" cx="241.85" cy="120.57" fx="252.01249046934794" fy="113.23485099104764" r="16.68" gradientUnits="userSpaceOnUse"><stop offset="0.09" stop-color="#fff"/><stop offset="0.77" stop-color="#999"/></radialGradient><radialGradient id="radial-gradient-5" cx="172.85" cy="202.57" fx="183.01249046934794" fy="195.23485099104764" r="16.68" xlink:href="#radial-gradient-4"/><radialGradient id="radial-gradient-6" cx="71.85" cy="120.57" fx="82.01249046934794" r="16.68" xlink:href="#radial-gradient-4"/><radialGradient id="radial-gradient-7" cx="140.31" cy="202.46" fx="156.13549639618952" fy="191.03515706032195" r="25.98" gradientUnits="userSpaceOnUse"><stop offset="0.09" stop-color="#fff"/><stop offset="0.93" stop-color="blue"/></radialGradient><radialGradient id="radial-gradient-8" cx="214.24" cy="120.16" fx="227.62600368261832" fy="110.49284079086893" r="21.98" xlink:href="#radial-gradient"/><radialGradient id="radial-gradient-9" cx="143.14" cy="46.45" fx="156.52846264991678" fy="36.78228428768411" r="21.98" xlink:href="#radial-gradient"/><radialGradient id="radial-gradient-10" cx="140.14" cy="120.45" fx="153.52846264991678" fy="110.7822842876841" r="21.98" xlink:href="#radial-gradient"/><radialGradient id="radial-gradient-11" cx="316.57" cy="33.88" fx="337.21598092617387" fy="18.981326671603632" r="33.88" xlink:href="#radial-gradient-2"/><radialGradient id="radial-gradient-12" cx="426.05" cy="119.43" fx="436.20886277857284" fy="112.09629402046048" r="16.68" xlink:href="#radial-gradient-4"/><radialGradient id="radial-gradient-13" cx="393.5" cy="119.32" fx="409.33186870541624" fy="107.89660008973479" r="25.98" xlink:href="#radial-gradient-7"/></defs><g id="Layer_2" data-name="Layer 2"><g id="Layer_1-2" data-name="Layer 1"><circle class="cls-1" cx="314.71" cy="120.88" r="21.98"/><text class="cls-2" transform="translate(305.71 128.94)">C</text><circle class="cls-3" cx="97.65" cy="46.39" r="33.88"/><text class="cls-4" transform="translate(87.77 55.78)">O</text><circle class="cls-5" cx="45.65" cy="46.39" r="33.88"/><text class="cls-4" transform="translate(35.77 55.78)">O</text><circle class="cls-6" cx="241.85" cy="120.57" r="16.68"/><text class="cls-7" transform="translate(236.1 127.03)">H</text><circle class="cls-8" cx="172.85" cy="202.57" r="16.68"/><text class="cls-7" transform="translate(167.1 209.03)">H</text><circle class="cls-9" cx="71.85" cy="120.57" r="16.68"/><text class="cls-7" transform="translate(66.1 127.03)">H</text><circle class="cls-10" cx="140.31" cy="202.46" r="25.98"/><text class="cls-11" transform="translate(130.86 211.48)">N</text><text class="cls-12" transform="translate(179.48 225.77)">3</text><text class="cls-4" transform="translate(0 27.5) scale(1.77 1)">-</text><text class="cls-4" transform="translate(189.44 197.34)">+</text><text class="cls-13" transform="translate(250.36 141.71)">2</text><circle class="cls-14" cx="214.24" cy="120.16" r="21.98"/><text class="cls-2" transform="translate(205.24 128.21)">C</text><circle class="cls-15" cx="143.14" cy="46.45" r="21.98"/><text class="cls-2" transform="translate(134.14 54.5)">C</text><circle class="cls-16" cx="140.14" cy="120.45" r="21.98"/><text class="cls-2" transform="translate(131.14 128.5)">C</text><line class="cls-17" x1="140.53" y1="73.55" x2="140.53" y2="93.55"/><line class="cls-17" x1="140.03" y1="149.55" x2="140.03" y2="169.55"/><line class="cls-17" x1="93.53" y1="120.55" x2="113.53" y2="120.55"/><line class="cls-17" x1="166.53" y1="121.05" x2="186.53" y2="121.05"/><line class="cls-17" x1="266.35" y1="120.73" x2="284.78" y2="120.73"/><circle class="cls-18" cx="316.57" cy="33.88" r="33.88"/><text class="cls-4" transform="translate(306.69 43.28)">O</text><line class="cls-17" x1="321.03" y1="73.83" x2="321.03" y2="93.83"/><line class="cls-17" x1="309.03" y1="73.83" x2="309.03" y2="93.83"/><circle class="cls-19" cx="426.05" cy="119.43" r="16.68"/><text class="cls-7" transform="translate(420.29 125.9)">H</text><circle class="cls-20" cx="393.5" cy="119.32" r="25.98"/><text class="cls-11" transform="translate(384.05 128.34)">N</text><text class="cls-13" transform="translate(433.5 143.2)">2</text><line class="cls-17" x1="341.64" y1="120.79" x2="360.06" y2="120.79"/></g></g></svg>