<svg xmlns="http://www.w3.org/2000/svg" xmlns:xlink="http://www.w3.org/1999/xlink" viewBox="0 0 488.25 234.13"><defs><style>.cls-1,.cls-12,.cls-14,.cls-15,.cls-17,.cls-18,.cls-19,.cls-20,.cls-21,.cls-22,.cls-3,.cls-4,.cls-6,.cls-7,.cls-8{opacity:0.4;}.cls-1{fill:url(#radial-gradient);}.cls-2{font-size:28.51px;}.cls-10,.cls-11,.cls-13,.cls-2,.cls-5,.cls-9{font-family:MyriadPro-Regular, Myriad Pro;}.cls-3{fill:url(#radial-gradient-2);}.cls-4{fill:url(#radial-gradient-3);}.cls-5{font-size:18px;}.cls-6{fill:url(#radial-gradient-4);}.cls-7{fill:url(#radial-gradient-5);}.cls-8{fill:url(#radial-gradient-6);}.cls-9{font-size:26px;}.cls-10{font-size:25.44px;}.cls-11{font-size:25.68px;}.cls-12{fill:url(#radial-gradient-7);}.cls-13{font-size:24px;}.cls-14{fill:url(#radial-gradient-8);}.cls-15{fill:url(#radial-gradient-9);}.cls-16{fill:none;stroke:#000;stroke-miterlimit:10;stroke-width:3px;}.cls-17{fill:url(#radial-gradient-10);}.cls-18{fill:url(#radial-gradient-11);}.cls-19{fill:url(#radial-gradient-12);}.cls-20{fill:url(#radial-gradient-13);}.cls-21{fill:url(#radial-gradient-14);}.cls-22{fill:url(#radial-gradient-15);}</style><radialGradient id="radial-gradient" cx="186.48" cy="48.39" fx="207.12144136499464" fy="33.48761807257458" r="33.88" gradientUnits="userSpaceOnUse"><stop offset="0.09" stop-color="#fff"/><stop offset="0.93" stop-color="red"/></radialGradient><radialGradient id="radial-gradient-2" cx="134.48" cy="48.39" fx="155.12144136499464" r="33.88" xlink:href="#radial-gradient"/><radialGradient id="radial-gradient-3" cx="186.68" cy="122.57" fx="196.84348282306968" fy="115.23485099104855" r="16.68" gradientUnits="userSpaceOnUse"><stop offset="0.09" stop-color="#fff"/><stop offset="0.77" stop-color="#999"/></radialGradient><radialGradient id="radial-gradient-4" cx="117.68" cy="204.57" fx="127.84348282306968" fy="197.23485099104855" r="16.68" xlink:href="#radial-gradient-3"/><radialGradient id="radial-gradient-5" cx="16.68" cy="122.57" fx="26.843482823069678" r="16.68" xlink:href="#radial-gradient-3"/><radialGradient id="radial-gradient-6" cx="85.14" cy="204.46" fx="100.96648874991128" fy="193.03515706032286" r="25.98" gradientUnits="userSpaceOnUse"><stop offset="0.09" stop-color="#fff"/><stop offset="0.93" stop-color="blue"/></radialGradient><radialGradient id="radial-gradient-7" cx="159.07" cy="122.16" fx="172.45699603634006" fy="112.49284079086983" r="21.98" gradientUnits="userSpaceOnUse"><stop offset="0.09" stop-color="#fff"/><stop offset="0.77"/></radialGradient><radialGradient id="radial-gradient-8" cx="87.97" cy="48.45" fx="101.35945500363852" fy="38.782284287685016" r="21.98" xlink:href="#radial-gradient-7"/><radialGradient id="radial-gradient-9" cx="84.97" cy="122.45" fx="98.35945500363852" fy="112.78228428768502" r="21.98" xlink:href="#radial-gradient-7"/><radialGradient id="radial-gradient-10" cx="284.5" cy="122.26" fx="294.66697434567726" fy="114.91871755916017" r="16.68" xlink:href="#radial-gradient-3"/><radialGradient id="radial-gradient-11" cx="256.89" cy="121.84" fx="270.2804875589489" fy="112.17670735898186" r="21.98" xlink:href="#radial-gradient-7"/><radialGradient id="radial-gradient-12" cx="357.4" cy="33.88" fx="378.0469732798962" fy="18.98132667160232" r="33.88" xlink:href="#radial-gradient"/><radialGradient id="radial-gradient-13" cx="355.89" cy="121.94" fx="369.2849869185406" fy="112.27599288671236" r="21.98" xlink:href="#radial-gradient-7"/><radialGradient id="radial-gradient-14" cx="467.63" cy="121.64" fx="477.78789605144306" fy="114.30734517323125" r="16.68" xlink:href="#radial-gradient-3"/><radialGradient id="radial-gradient-15" cx="435.08" cy="121.53" fx="450.91090197828646" fy="110.10765124250557" r="25.98" xlink:href="#radial-gradient-6"/></defs><g id="Layer_2" data-name="Layer 2"><g id="Layer_1-2" data-name="Layer 1"><circle class="cls-1" cx="186.48" cy="48.39" r="33.88"/><text class="cls-2" transform="translate(176.6 57.78)">O</text><circle class="cls-3" cx="134.48" cy="48.39" r="33.88"/><text class="cls-2" transform="translate(124.6 57.78)">O</text><circle class="cls-4" cx="186.68" cy="122.57" r="16.68"/><text class="cls-5" transform="translate(180.93 129.03)">H</text><circle class="cls-6" cx="117.68" cy="204.57" r="16.68"/><text class="cls-5" transform="translate(111.93 211.03)">H</text><circle class="cls-7" cx="16.68" cy="122.57" r="16.68"/><text class="cls-5" transform="translate(10.93 129.03)">H</text><circle class="cls-8" cx="85.14" cy="204.46" r="25.98"/><text class="cls-9" transform="translate(75.69 213.48)">N</text><text class="cls-10" transform="translate(124.31 227.77)">3</text><text class="cls-2" transform="translate(217.83 34.5) scale(1.77 1)">-</text><text class="cls-2" transform="translate(134.27 199.34)">+</text><text class="cls-11" transform="translate(195.19 143.71)">2</text><circle class="cls-12" cx="159.07" cy="122.16" r="21.98"/><text class="cls-13" transform="translate(150.07 130.21)">C</text><circle class="cls-14" cx="87.97" cy="48.45" r="21.98"/><text class="cls-13" transform="translate(78.97 56.5)">C</text><circle class="cls-15" cx="84.97" cy="122.45" r="21.98"/><text class="cls-13" transform="translate(75.97 130.5)">C</text><line class="cls-16" x1="85.36" y1="75.55" x2="85.36" y2="95.55"/><line class="cls-16" x1="84.86" y1="151.55" x2="84.86" y2="171.55"/><line class="cls-16" x1="38.36" y1="122.55" x2="58.36" y2="122.55"/><line class="cls-16" x1="111.36" y1="123.05" x2="131.36" y2="123.05"/><line class="cls-16" x1="307.36" y1="122.05" x2="327.36" y2="122.05"/><circle class="cls-17" cx="284.5" cy="122.26" r="16.68"/><text class="cls-5" transform="translate(278.75 128.72)">H</text><text class="cls-11" transform="translate(293.01 143.39)">2</text><circle class="cls-18" cx="256.89" cy="121.84" r="21.98"/><text class="cls-13" transform="translate(247.89 129.89)">C</text><line class="cls-16" x1="209.19" y1="122.73" x2="229.19" y2="122.73"/><circle class="cls-19" cx="357.4" cy="33.88" r="33.88"/><text class="cls-2" transform="translate(347.52 43.28)">O</text><circle class="cls-20" cx="355.89" cy="121.94" r="21.98"/><text class="cls-13" transform="translate(346.9 129.99)">C</text><line class="cls-16" x1="382.29" y1="120.54" x2="402.29" y2="120.54"/><line class="cls-16" x1="361.86" y1="73.83" x2="361.86" y2="93.83"/><line class="cls-16" x1="349.86" y1="73.83" x2="349.86" y2="93.83"/><circle class="cls-21" cx="467.63" cy="121.64" r="16.68"/><text class="cls-5" transform="translate(461.87 128.11)">H</text><circle class="cls-22" cx="435.08" cy="121.53" r="25.98"/><text class="cls-9" transform="translate(425.63 130.55)">N</text><text class="cls-11" transform="translate(475.08 145.41)">2</text></g></g></svg>