<svg xmlns="http://www.w3.org/2000/svg" xmlns:xlink="http://www.w3.org/1999/xlink" viewBox="0 0 468.36 232.48"><defs><style>.cls-1,.cls-11,.cls-13,.cls-15,.cls-17,.cls-18,.cls-3,.cls-4,.cls-6,.cls-7,.cls-8{opacity:0.4;}.cls-1{fill:url(#radial-gradient);}.cls-2{font-size:28.51px;}.cls-10,.cls-12,.cls-16,.cls-2,.cls-5,.cls-9{font-family:MyriadPro-Regular, Myriad Pro;}.cls-3{fill:url(#radial-gradient-2);}.cls-4{fill:url(#radial-gradient-3);}.cls-5{font-size:18px;}.cls-6{fill:url(#radial-gradient-4);}.cls-7{fill:url(#radial-gradient-5);}.cls-8{fill:url(#radial-gradient-6);}.cls-9{font-size:26px;}.cls-10{font-size:25.44px;}.cls-11{fill:url(#radial-gradient-7);}.cls-12{font-size:24px;}.cls-13{fill:url(#radial-gradient-8);}.cls-14{fill:none;stroke:#000;stroke-miterlimit:10;stroke-width:3px;}.cls-15{fill:url(#radial-gradient-9);}.cls-16{font-size:25.68px;}.cls-17{fill:url(#radial-gradient-10);}.cls-18{fill:url(#radial-gradient-11);}</style><radialGradient id="radial-gradient" cx="187.48" cy="46.75" fx="208.1214413649941" fy="31.84388607273187" r="33.88" gradientUnits="userSpaceOnUse"><stop offset="0.09" stop-color="#fff"/><stop offset="0.93" stop-color="red"/></radialGradient><radialGradient id="radial-gradient-2" cx="135.48" cy="46.75" fx="156.1214413649941" r="33.88" xlink:href="#radial-gradient"/><radialGradient id="radial-gradient-3" cx="451.68" cy="120.93" fx="461.8434828230697" fy="113.59111899120361" r="16.68" gradientUnits="userSpaceOnUse"><stop offset="0.09" stop-color="#fff"/><stop offset="0.77" stop-color="#999"/></radialGradient><radialGradient id="radial-gradient-4" cx="117.68" cy="202.93" fx="127.84348282306968" fy="195.59111899120361" r="16.68" xlink:href="#radial-gradient-3"/><radialGradient id="radial-gradient-5" cx="16.68" cy="120.93" fx="26.843482823069678" r="16.68" xlink:href="#radial-gradient-3"/><radialGradient id="radial-gradient-6" cx="85.14" cy="202.82" fx="100.96648874991128" fy="191.39142506047793" r="25.98" gradientUnits="userSpaceOnUse"><stop offset="0.09" stop-color="#fff"/><stop offset="0.93" stop-color="blue"/></radialGradient><radialGradient id="radial-gradient-7" cx="87.97" cy="46.8" fx="101.35945500363852" fy="37.138552287840085" r="21.98" gradientUnits="userSpaceOnUse"><stop offset="0.09" stop-color="#fff"/><stop offset="0.77"/></radialGradient><radialGradient id="radial-gradient-8" cx="84.97" cy="120.8" fx="98.35945500363852" fy="111.13855228784008" r="21.98" xlink:href="#radial-gradient-7"/><radialGradient id="radial-gradient-9" cx="186.5" cy="121.61" fx="196.66697434567726" fy="114.27498555931524" r="16.68" xlink:href="#radial-gradient-3"/><radialGradient id="radial-gradient-10" cx="158.89" cy="121.2" fx="172.2804875589489" fy="111.53297535913693" r="21.98" xlink:href="#radial-gradient-7"/><radialGradient id="radial-gradient-11" cx="408.43" cy="120.91" fx="429.06857693066615" fy="106.01054582667936" r="33.88" xlink:href="#radial-gradient"/></defs><g id="Layer_2" data-name="Layer 2"><g id="Layer_1-2" data-name="Layer 1"><circle class="cls-1" cx="187.48" cy="46.75" r="33.88"/><text class="cls-2" transform="translate(177.6 56.14)">O</text><circle class="cls-3" cx="135.48" cy="46.75" r="33.88"/><text class="cls-2" transform="translate(125.6 56.14)">O</text><circle class="cls-4" cx="451.68" cy="120.93" r="16.68"/><text class="cls-5" transform="translate(445.93 127.39)">H</text><circle class="cls-6" cx="117.68" cy="202.93" r="16.68"/><text class="cls-5" transform="translate(111.93 209.39)">H</text><circle class="cls-7" cx="16.68" cy="120.93" r="16.68"/><text class="cls-5" transform="translate(10.93 127.39)">H</text><circle class="cls-8" cx="85.14" cy="202.82" r="25.98"/><text class="cls-9" transform="translate(75.69 211.83)">N</text><text class="cls-10" transform="translate(124.31 226.12)">3</text><text class="cls-2" transform="translate(215.83 23.86) scale(1.77 1)">-</text><text class="cls-2" transform="translate(134.27 197.69)">+</text><circle class="cls-11" cx="87.97" cy="46.8" r="21.98"/><text class="cls-12" transform="translate(78.97 54.86)">C</text><circle class="cls-13" cx="84.97" cy="120.8" r="21.98"/><text class="cls-12" transform="translate(75.97 128.86)">C</text><line class="cls-14" x1="85.36" y1="73.91" x2="85.36" y2="93.91"/><line class="cls-14" x1="84.86" y1="149.91" x2="84.86" y2="169.91"/><line class="cls-14" x1="38.36" y1="120.91" x2="58.36" y2="120.91"/><line class="cls-14" x1="111.36" y1="121.41" x2="131.36" y2="121.41"/><line class="cls-14" x1="209.36" y1="121.41" x2="229.36" y2="121.41"/><circle class="cls-15" cx="186.5" cy="121.61" r="16.68"/><text class="cls-5" transform="translate(180.75 128.07)">H</text><text class="cls-16" transform="translate(195.01 142.75)">2</text><circle class="cls-17" cx="158.89" cy="121.2" r="21.98"/><text class="cls-12" transform="translate(149.89 129.25)">C</text><line class="cls-14" x1="349.19" y1="121.09" x2="367.61" y2="121.09"/><circle class="cls-18" cx="408.43" cy="120.91" r="33.88"/><text class="cls-2" transform="translate(398.54 130.31)">O</text><polygon class="cls-14" points="319.42 68.45 258.8 68.45 228.49 120.95 258.8 173.46 319.42 173.46 349.73 120.95 319.42 68.45"/><line class="cls-14" x1="240.85" y1="120.99" x2="265.61" y2="78.46"/><line class="cls-14" x1="337.39" y1="121.05" x2="312.78" y2="78.43"/><line class="cls-14" x1="264.48" y1="164.74" x2="313.69" y2="164.74"/></g></g></svg>