<svg xmlns="http://www.w3.org/2000/svg" xmlns:xlink="http://www.w3.org/1999/xlink" viewBox="0 0 704.57 232.48"><defs><style>.cls-1,.cls-12,.cls-13,.cls-15,.cls-17,.cls-18,.cls-19,.cls-20,.cls-21,.cls-22,.cls-23,.cls-24,.cls-25,.cls-26,.cls-27,.cls-3,.cls-5,.cls-6,.cls-8,.cls-9{opacity:0.4;}.cls-1{fill:url(#radial-gradient);}.cls-2{font-size:24px;}.cls-10,.cls-11,.cls-16,.cls-2,.cls-4,.cls-7{font-family:MyriadPro-Regular, Myriad Pro;}.cls-3{fill:url(#radial-gradient-2);}.cls-4{font-size:28.51px;}.cls-5{fill:url(#radial-gradient-3);}.cls-6{fill:url(#radial-gradient-4);}.cls-7{font-size:18px;}.cls-8{fill:url(#radial-gradient-5);}.cls-9{fill:url(#radial-gradient-6);}.cls-10{font-size:26px;}.cls-11{font-size:25.44px;}.cls-12{fill:url(#radial-gradient-7);}.cls-13{fill:url(#radial-gradient-8);}.cls-14{fill:none;stroke:#000;stroke-miterlimit:10;stroke-width:3px;}.cls-15{fill:url(#radial-gradient-9);}.cls-16{font-size:25.68px;}.cls-17{fill:url(#radial-gradient-10);}.cls-18{fill:url(#radial-gradient-11);}.cls-19{fill:url(#radial-gradient-12);}.cls-20{fill:url(#radial-gradient-13);}.cls-21{fill:url(#radial-gradient-14);}.cls-22{fill:url(#radial-gradient-15);}.cls-23{fill:url(#radial-gradient-16);}.cls-24{fill:url(#radial-gradient-17);}.cls-25{fill:url(#radial-gradient-18);}.cls-26{fill:url(#radial-gradient-19);}.cls-27{fill:url(#radial-gradient-20);}</style><radialGradient id="radial-gradient" cx="565.35" cy="120.18" fx="578.7384725467263" fy="110.51314517867571" r="21.98" gradientUnits="userSpaceOnUse"><stop offset="0.09" stop-color="#fff"/><stop offset="0.77"/></radialGradient><radialGradient id="radial-gradient-2" cx="187.48" cy="46.75" fx="208.1214413649941" fy="31.84388607273187" r="33.88" gradientUnits="userSpaceOnUse"><stop offset="0.09" stop-color="#fff"/><stop offset="0.93" stop-color="red"/></radialGradient><radialGradient id="radial-gradient-3" cx="135.48" cy="46.75" fx="156.1214413649941" r="33.88" xlink:href="#radial-gradient-2"/><radialGradient id="radial-gradient-4" cx="117.68" cy="202.93" fx="127.84348282306968" fy="195.59111899120361" r="16.68" gradientUnits="userSpaceOnUse"><stop offset="0.09" stop-color="#fff"/><stop offset="0.77" stop-color="#999"/></radialGradient><radialGradient id="radial-gradient-5" cx="16.68" cy="120.93" fx="26.843482823069678" fy="113.59111899120361" r="16.68" xlink:href="#radial-gradient-4"/><radialGradient id="radial-gradient-6" cx="85.14" cy="202.82" fx="100.96648874991128" fy="191.39142506047793" r="25.98" gradientUnits="userSpaceOnUse"><stop offset="0.09" stop-color="#fff"/><stop offset="0.93" stop-color="blue"/></radialGradient><radialGradient id="radial-gradient-7" cx="87.97" cy="46.8" fx="101.35945500363852" fy="37.138552287840085" r="21.98" xlink:href="#radial-gradient"/><radialGradient id="radial-gradient-8" cx="84.97" cy="120.8" fx="98.35945500363852" fy="111.13855228784008" r="21.98" xlink:href="#radial-gradient"/><radialGradient id="radial-gradient-9" cx="186.5" cy="121.61" fx="196.66697434567726" fy="114.27498555931524" r="16.68" xlink:href="#radial-gradient-4"/><radialGradient id="radial-gradient-10" cx="158.89" cy="121.2" fx="172.2804875589489" fy="111.53297535913693" r="21.98" xlink:href="#radial-gradient"/><radialGradient id="radial-gradient-11" cx="497.88" cy="120.79" fx="508.0398551322946" fy="113.45256202061645" r="16.68" xlink:href="#radial-gradient-4"/><radialGradient id="radial-gradient-12" cx="465.34" cy="120.68" fx="481.162861059138" fy="109.25286808989077" r="25.98" xlink:href="#radial-gradient-6"/><radialGradient id="radial-gradient-13" cx="288.09" cy="121.34" fx="298.25379763283894" fy="114.00486089373553" r="16.68" xlink:href="#radial-gradient-4"/><radialGradient id="radial-gradient-14" cx="260.48" cy="120.93" fx="273.86731084611057" fy="111.26285069355721" r="21.98" xlink:href="#radial-gradient"/><radialGradient id="radial-gradient-15" cx="390.09" cy="121.34" fx="400.25379763283894" fy="114.00486089373553" r="16.68" xlink:href="#radial-gradient-4"/><radialGradient id="radial-gradient-16" cx="362.48" cy="120.93" fx="375.86731084611057" fy="111.26285069355721" r="21.98" xlink:href="#radial-gradient"/><radialGradient id="radial-gradient-17" cx="675.66" cy="120.49" fx="685.8188857260869" fy="113.15478380667773" r="16.68" xlink:href="#radial-gradient-4"/><radialGradient id="radial-gradient-18" cx="643.11" cy="120.38" fx="658.9418916529304" fy="108.95508987595204" r="25.98" xlink:href="#radial-gradient-6"/><radialGradient id="radial-gradient-19" cx="599.38" cy="45.78" fx="609.5426858239883" fy="38.44392941837541" r="16.68" xlink:href="#radial-gradient-4"/><radialGradient id="radial-gradient-20" cx="566.84" cy="45.67" fx="582.6656917508318" fy="34.24423548764971" r="25.98" xlink:href="#radial-gradient-6"/></defs><g id="Layer_2" data-name="Layer 2"><g id="Layer_1-2" data-name="Layer 1"><circle class="cls-1" cx="565.35" cy="120.18" r="21.98"/><text class="cls-2" transform="translate(556.35 128.23)">C</text><circle class="cls-3" cx="187.48" cy="46.75" r="33.88"/><text class="cls-4" transform="translate(177.6 56.14)">O</text><circle class="cls-5" cx="135.48" cy="46.75" r="33.88"/><text class="cls-4" transform="translate(125.6 56.14)">O</text><circle class="cls-6" cx="117.68" cy="202.93" r="16.68"/><text class="cls-7" transform="translate(111.93 209.39)">H</text><circle class="cls-8" cx="16.68" cy="120.93" r="16.68"/><text class="cls-7" transform="translate(10.93 127.39)">H</text><circle class="cls-9" cx="85.14" cy="202.82" r="25.98"/><text class="cls-10" transform="translate(75.69 211.83)">N</text><text class="cls-11" transform="translate(124.31 226.12)">3</text><text class="cls-4" transform="translate(215.83 23.86) scale(1.77 1)">-</text><text class="cls-4" transform="translate(134.27 197.69)">+</text><circle class="cls-12" cx="87.97" cy="46.8" r="21.98"/><text class="cls-2" transform="translate(78.97 54.86)">C</text><circle class="cls-13" cx="84.97" cy="120.8" r="21.98"/><text class="cls-2" transform="translate(75.97 128.86)">C</text><line class="cls-14" x1="85.36" y1="73.91" x2="85.36" y2="93.91"/><line class="cls-14" x1="84.86" y1="149.91" x2="84.86" y2="169.91"/><line class="cls-14" x1="38.36" y1="120.91" x2="58.36" y2="120.91"/><line class="cls-14" x1="111.36" y1="121.41" x2="131.36" y2="121.41"/><line class="cls-14" x1="209.36" y1="121.41" x2="229.36" y2="121.41"/><circle class="cls-15" cx="186.5" cy="121.61" r="16.68"/><text class="cls-7" transform="translate(180.75 128.07)">H</text><text class="cls-16" transform="translate(195.01 142.75)">2</text><circle class="cls-17" cx="158.89" cy="121.2" r="21.98"/><text class="cls-2" transform="translate(149.89 129.25)">C</text><circle class="cls-18" cx="497.88" cy="120.79" r="16.68"/><text class="cls-7" transform="translate(492.12 127.25)">H</text><circle class="cls-19" cx="465.34" cy="120.68" r="25.98"/><text class="cls-10" transform="translate(455.89 129.69)">N</text><text class="cls-16" transform="translate(683.33 144.56)">2</text><line class="cls-14" x1="519.47" y1="121.15" x2="537.89" y2="121.15"/><line class="cls-14" x1="310.95" y1="121.14" x2="330.95" y2="121.14"/><circle class="cls-20" cx="288.09" cy="121.34" r="16.68"/><text class="cls-7" transform="translate(282.34 127.8)">H</text><text class="cls-16" transform="translate(296.6 142.48)">2</text><circle class="cls-21" cx="260.48" cy="120.93" r="21.98"/><text class="cls-2" transform="translate(251.48 128.98)">C</text><line class="cls-14" x1="412.95" y1="121.14" x2="432.95" y2="121.14"/><circle class="cls-22" cx="390.09" cy="121.34" r="16.68"/><text class="cls-7" transform="translate(384.34 127.8)">H</text><text class="cls-16" transform="translate(398.6 142.48)">2</text><circle class="cls-23" cx="362.48" cy="120.93" r="21.98"/><text class="cls-2" transform="translate(353.48 128.98)">C</text><circle class="cls-24" cx="675.66" cy="120.49" r="16.68"/><text class="cls-7" transform="translate(669.9 126.95)">H</text><circle class="cls-25" cx="643.11" cy="120.38" r="25.98"/><text class="cls-10" transform="translate(633.66 129.4)">N</text><line class="cls-14" x1="591.11" y1="126.46" x2="611.11" y2="126.46"/><line class="cls-14" x1="591.11" y1="114.46" x2="611.11" y2="114.46"/><text class="cls-4" transform="translate(687.58 108.6)">+</text><text class="cls-16" transform="translate(607.05 69.85)">2</text><circle class="cls-26" cx="599.38" cy="45.78" r="16.68"/><text class="cls-7" transform="translate(593.63 52.24)">H</text><circle class="cls-27" cx="566.84" cy="45.67" r="25.98"/><text class="cls-10" transform="translate(557.39 54.69)">N</text><line class="cls-14" x1="565.13" y1="94.36" x2="565.13" y2="75.94"/></g></g></svg>