<svg xmlns="http://www.w3.org/2000/svg" xmlns:xlink="http://www.w3.org/1999/xlink" viewBox="0 0 446.86 233.13"><defs><style>.cls-1,.cls-10,.cls-12,.cls-13,.cls-15,.cls-17,.cls-18,.cls-19,.cls-3,.cls-4,.cls-6,.cls-7{opacity:0.4;}.cls-1{fill:url(#radial-gradient);}.cls-2{font-size:28.51px;}.cls-11,.cls-16,.cls-2,.cls-5,.cls-8,.cls-9{font-family:MyriadPro-Regular, Myriad Pro;}.cls-3{fill:url(#radial-gradient-2);}.cls-4{fill:url(#radial-gradient-3);}.cls-5{font-size:18px;}.cls-6{fill:url(#radial-gradient-4);}.cls-7{fill:url(#radial-gradient-5);}.cls-8{font-size:26px;}.cls-9{font-size:25.44px;}.cls-10{fill:url(#radial-gradient-6);}.cls-11{font-size:24px;}.cls-12{fill:url(#radial-gradient-7);}.cls-13{fill:url(#radial-gradient-8);}.cls-14{fill:none;stroke:#000;stroke-miterlimit:10;stroke-width:3px;}.cls-15{fill:url(#radial-gradient-9);}.cls-16{font-size:25.68px;}.cls-17{fill:url(#radial-gradient-10);}.cls-18{fill:url(#radial-gradient-11);}.cls-19{fill:url(#radial-gradient-12);}</style><radialGradient id="radial-gradient" cx="97.65" cy="47.39" fx="118.29044901127234" fy="32.48761807257589" r="33.88" gradientUnits="userSpaceOnUse"><stop offset="0.09" stop-color="#fff"/><stop offset="0.93" stop-color="red"/></radialGradient><radialGradient id="radial-gradient-2" cx="45.65" cy="47.39" fx="66.29044901127234" r="33.88" xlink:href="#radial-gradient"/><radialGradient id="radial-gradient-3" cx="172.85" cy="203.57" fx="183.01249046934794" fy="196.23485099104764" r="16.68" gradientUnits="userSpaceOnUse"><stop offset="0.09" stop-color="#fff"/><stop offset="0.77" stop-color="#999"/></radialGradient><radialGradient id="radial-gradient-4" cx="71.85" cy="121.57" fx="82.01249046934794" fy="114.23485099104764" r="16.68" xlink:href="#radial-gradient-3"/><radialGradient id="radial-gradient-5" cx="140.31" cy="203.46" fx="156.13549639618952" fy="192.03515706032195" r="25.98" gradientUnits="userSpaceOnUse"><stop offset="0.09" stop-color="#fff"/><stop offset="0.93" stop-color="blue"/></radialGradient><radialGradient id="radial-gradient-6" cx="311.24" cy="121.16" fx="324.6260036826183" fy="111.49284079086893" r="21.98" gradientUnits="userSpaceOnUse"><stop offset="0.09" stop-color="#fff"/><stop offset="0.77"/></radialGradient><radialGradient id="radial-gradient-7" cx="143.14" cy="47.45" fx="156.52846264991678" fy="37.78228428768411" r="21.98" xlink:href="#radial-gradient-6"/><radialGradient id="radial-gradient-8" cx="140.14" cy="121.45" fx="153.52846264991678" fy="111.7822842876841" r="21.98" xlink:href="#radial-gradient-6"/><radialGradient id="radial-gradient-9" cx="241.67" cy="122.26" fx="251.83598199195552" fy="114.91871755915926" r="16.68" xlink:href="#radial-gradient-3"/><radialGradient id="radial-gradient-10" cx="214.06" cy="121.84" fx="227.44949520522715" fy="112.17670735898095" r="21.98" xlink:href="#radial-gradient-6"/><radialGradient id="radial-gradient-11" cx="311.57" cy="33.88" fx="332.21598092617387" fy="18.981326671603632" r="33.88" xlink:href="#radial-gradient"/><radialGradient id="radial-gradient-12" cx="397.59" cy="121.56" fx="418.2375845769444" fy="106.65427782652338" r="33.88" xlink:href="#radial-gradient"/></defs><g id="Layer_2" data-name="Layer 2"><g id="Layer_1-2" data-name="Layer 1"><circle class="cls-1" cx="97.65" cy="47.39" r="33.88"/><text class="cls-2" transform="translate(87.77 56.78)">O</text><circle class="cls-3" cx="45.65" cy="47.39" r="33.88"/><text class="cls-2" transform="translate(35.77 56.78)">O</text><circle class="cls-4" cx="172.85" cy="203.57" r="16.68"/><text class="cls-5" transform="translate(167.1 210.03)">H</text><circle class="cls-6" cx="71.85" cy="121.57" r="16.68"/><text class="cls-5" transform="translate(66.1 128.03)">H</text><circle class="cls-7" cx="140.31" cy="203.46" r="25.98"/><text class="cls-8" transform="translate(130.86 212.48)">N</text><text class="cls-9" transform="translate(179.48 226.77)">3</text><text class="cls-2" transform="translate(0 28.5) scale(1.77 1)">-</text><text class="cls-2" transform="translate(189.44 198.34)">+</text><circle class="cls-10" cx="311.24" cy="121.16" r="21.98"/><text class="cls-11" transform="translate(302.24 129.21)">C</text><circle class="cls-12" cx="143.14" cy="47.45" r="21.98"/><text class="cls-11" transform="translate(134.14 55.5)">C</text><circle class="cls-13" cx="140.14" cy="121.45" r="21.98"/><text class="cls-11" transform="translate(131.14 129.5)">C</text><line class="cls-14" x1="140.53" y1="74.55" x2="140.53" y2="94.55"/><line class="cls-14" x1="140.03" y1="150.55" x2="140.03" y2="170.55"/><line class="cls-14" x1="93.53" y1="121.55" x2="113.53" y2="121.55"/><line class="cls-14" x1="166.53" y1="122.05" x2="186.53" y2="122.05"/><line class="cls-14" x1="264.53" y1="122.05" x2="284.53" y2="122.05"/><circle class="cls-15" cx="241.67" cy="122.26" r="16.68"/><text class="cls-5" transform="translate(235.92 128.72)">H</text><text class="cls-16" transform="translate(250.18 143.39)">2</text><circle class="cls-17" cx="214.06" cy="121.84" r="21.98"/><text class="cls-11" transform="translate(205.06 129.89)">C</text><line class="cls-14" x1="338.35" y1="121.73" x2="356.78" y2="121.73"/><circle class="cls-18" cx="311.57" cy="33.88" r="33.88"/><text class="cls-2" transform="translate(301.69 43.28)">O</text><line class="cls-14" x1="316.03" y1="73.83" x2="316.03" y2="93.83"/><line class="cls-14" x1="304.03" y1="73.83" x2="304.03" y2="93.83"/><circle class="cls-19" cx="397.59" cy="121.56" r="33.88"/><text class="cls-2" transform="translate(387.71 130.95)">O</text><text class="cls-2" transform="translate(431.33 99.58) scale(1.77 1)">-</text></g></g></svg>