<svg xmlns="http://www.w3.org/2000/svg" xmlns:xlink="http://www.w3.org/1999/xlink" viewBox="0 0 488.36 232.62"><defs><style>.cls-1,.cls-10,.cls-12,.cls-13,.cls-16,.cls-17,.cls-18,.cls-19,.cls-20,.cls-21,.cls-4,.cls-6,.cls-7,.cls-9{opacity:0.4;}.cls-1{fill:url(#radial-gradient);}.cls-2{font-size:18px;}.cls-14,.cls-15,.cls-2,.cls-3,.cls-5,.cls-8{font-family:MyriadPro-Regular, Myriad Pro;}.cls-3{font-size:25.68px;}.cls-4{fill:url(#radial-gradient-2);}.cls-5{font-size:24px;}.cls-6{fill:url(#radial-gradient-3);}.cls-7{fill:url(#radial-gradient-4);}.cls-8{font-size:28.51px;}.cls-9{fill:url(#radial-gradient-5);}.cls-10{fill:url(#radial-gradient-6);}.cls-11{fill:none;stroke:#000;stroke-miterlimit:10;stroke-width:3px;}.cls-12{fill:url(#radial-gradient-7);}.cls-13{fill:url(#radial-gradient-8);}.cls-14{font-size:26px;}.cls-15{font-size:25.44px;}.cls-16{fill:url(#radial-gradient-9);}.cls-17{fill:url(#radial-gradient-10);}.cls-18{fill:url(#radial-gradient-11);}.cls-19{fill:url(#radial-gradient-12);}.cls-20{fill:url(#radial-gradient-13);}.cls-21{fill:url(#radial-gradient-14);}</style><radialGradient id="radial-gradient" cx="186.68" cy="121.06" fx="196.84348282306968" fy="113.72855959007629" r="16.68" gradientUnits="userSpaceOnUse"><stop offset="0.09" stop-color="#fff"/><stop offset="0.77" stop-color="#999"/></radialGradient><radialGradient id="radial-gradient-2" cx="159.07" cy="120.65" fx="172.4569960363413" fy="110.98654938989797" r="21.98" gradientUnits="userSpaceOnUse"><stop offset="0.09" stop-color="#fff"/><stop offset="0.77"/></radialGradient><radialGradient id="radial-gradient-3" cx="84.97" cy="120.94" fx="98.35945500363852" fy="111.27599288671276" r="21.98" xlink:href="#radial-gradient-2"/><radialGradient id="radial-gradient-4" cx="186.48" cy="46.88" fx="207.1214413649931" fy="31.981326671602126" r="33.88" gradientUnits="userSpaceOnUse"><stop offset="0.09" stop-color="#fff"/><stop offset="0.93" stop-color="red"/></radialGradient><radialGradient id="radial-gradient-5" cx="134.48" cy="46.88" fx="155.1214413649931" r="33.88" xlink:href="#radial-gradient-4"/><radialGradient id="radial-gradient-6" cx="87.97" cy="46.94" fx="101.35945500363852" fy="37.27599288671276" r="21.98" xlink:href="#radial-gradient-2"/><radialGradient id="radial-gradient-7" cx="117.68" cy="203.06" fx="127.84348282306968" fy="195.7285595900763" r="16.68" xlink:href="#radial-gradient"/><radialGradient id="radial-gradient-8" cx="85.14" cy="202.95" fx="100.96648874991128" fy="191.5288656593506" r="25.98" gradientUnits="userSpaceOnUse"><stop offset="0.09" stop-color="#fff"/><stop offset="0.93" stop-color="blue"/></radialGradient><radialGradient id="radial-gradient-9" cx="16.68" cy="121.06" fx="26.843482823069678" r="16.68" xlink:href="#radial-gradient"/><radialGradient id="radial-gradient-10" cx="284.5" cy="120.75" fx="294.66697434567726" fy="113.41242615818791" r="16.68" xlink:href="#radial-gradient"/><radialGradient id="radial-gradient-11" cx="256.89" cy="120.34" fx="270.2804875589489" fy="110.6704159580096" r="21.98" xlink:href="#radial-gradient-2"/><radialGradient id="radial-gradient-12" cx="357.48" cy="33.88" fx="378.1214413649931" fy="18.981326671602126" r="33.88" xlink:href="#radial-gradient-4"/><radialGradient id="radial-gradient-13" cx="444.48" cy="121.88" fx="465.1214413649931" fy="106.98132667160212" r="33.88" xlink:href="#radial-gradient-4"/><radialGradient id="radial-gradient-14" cx="355.97" cy="121.94" fx="369.3594550036385" fy="112.27599288671276" r="21.98" xlink:href="#radial-gradient-2"/></defs><g id="Layer_2" data-name="Layer 2"><g id="Layer_1-2" data-name="Layer 1"><circle class="cls-1" cx="186.68" cy="121.06" r="16.68"/><text class="cls-2" transform="translate(180.93 127.53)">H</text><text class="cls-3" transform="translate(195.19 142.2)">2</text><circle class="cls-4" cx="159.07" cy="120.65" r="21.98"/><text class="cls-5" transform="translate(150.07 128.7)">C</text><circle class="cls-6" cx="84.97" cy="120.94" r="21.98"/><text class="cls-5" transform="translate(75.97 128.99)">C</text><circle class="cls-7" cx="186.48" cy="46.88" r="33.88"/><text class="cls-8" transform="translate(176.6 56.28)">O</text><circle class="cls-9" cx="134.48" cy="46.88" r="33.88"/><text class="cls-8" transform="translate(124.6 56.28)">O</text><text class="cls-8" transform="translate(217.83 33) scale(1.77 1)">-</text><circle class="cls-10" cx="87.97" cy="46.94" r="21.98"/><text class="cls-5" transform="translate(78.97 54.99)">C</text><line class="cls-11" x1="85.36" y1="74.04" x2="85.36" y2="94.04"/><circle class="cls-12" cx="117.68" cy="203.06" r="16.68"/><text class="cls-2" transform="translate(111.93 209.53)">H</text><circle class="cls-13" cx="85.14" cy="202.95" r="25.98"/><text class="cls-14" transform="translate(75.69 211.97)">N</text><text class="cls-15" transform="translate(124.31 226.26)">3</text><text class="cls-8" transform="translate(134.27 197.83)">+</text><line class="cls-11" x1="84.86" y1="150.04" x2="84.86" y2="170.04"/><circle class="cls-16" cx="16.68" cy="121.06" r="16.68"/><text class="cls-2" transform="translate(10.93 127.53)">H</text><line class="cls-11" x1="38.36" y1="121.04" x2="58.36" y2="121.04"/><line class="cls-11" x1="111.36" y1="121.54" x2="131.36" y2="121.54"/><circle class="cls-17" cx="284.5" cy="120.75" r="16.68"/><text class="cls-2" transform="translate(278.75 127.21)">H</text><text class="cls-3" transform="translate(293.01 141.88)">2</text><circle class="cls-18" cx="256.89" cy="120.34" r="21.98"/><text class="cls-5" transform="translate(247.89 128.39)">C</text><line class="cls-11" x1="209.19" y1="121.23" x2="229.19" y2="121.23"/><circle class="cls-19" cx="357.48" cy="33.88" r="33.88"/><text class="cls-8" transform="translate(347.6 43.28)">O</text><circle class="cls-20" cx="444.48" cy="121.88" r="33.88"/><text class="cls-8" transform="translate(434.6 131.28)">O</text><text class="cls-8" transform="translate(472.83 104) scale(1.77 1)">-</text><circle class="cls-21" cx="355.97" cy="121.94" r="21.98"/><text class="cls-5" transform="translate(346.97 129.99)">C</text><line class="cls-11" x1="307.36" y1="120.54" x2="327.36" y2="120.54"/><line class="cls-11" x1="382.36" y1="120.54" x2="402.36" y2="120.54"/><line class="cls-11" x1="361.94" y1="73.83" x2="361.94" y2="93.83"/><line class="cls-11" x1="349.94" y1="73.83" x2="349.94" y2="93.83"/></g></g></svg>