<svg xmlns="http://www.w3.org/2000/svg" xmlns:xlink="http://www.w3.org/1999/xlink" viewBox="0 0 419.42 228.48"><defs><style>.cls-1,.cls-12,.cls-14,.cls-15,.cls-17,.cls-18,.cls-19,.cls-3,.cls-4,.cls-6,.cls-7,.cls-8{opacity:0.4;}.cls-1{fill:url(#radial-gradient);}.cls-2{font-size:28.51px;}.cls-10,.cls-11,.cls-13,.cls-2,.cls-5,.cls-9{font-family:MyriadPro-Regular, Myriad Pro;}.cls-3{fill:url(#radial-gradient-2);}.cls-4{fill:url(#radial-gradient-3);}.cls-5{font-size:18px;}.cls-6{fill:url(#radial-gradient-4);}.cls-7{fill:url(#radial-gradient-5);}.cls-8{fill:url(#radial-gradient-6);}.cls-9{font-size:26px;}.cls-10{font-size:25.44px;}.cls-11{font-size:25.68px;}.cls-12{fill:url(#radial-gradient-7);}.cls-13{font-size:24px;}.cls-14{fill:url(#radial-gradient-8);}.cls-15{fill:url(#radial-gradient-9);}.cls-16{fill:none;stroke:#000;stroke-miterlimit:10;stroke-width:3px;}.cls-17{fill:url(#radial-gradient-10);}.cls-18{fill:url(#radial-gradient-11);}.cls-19{fill:url(#radial-gradient-12);}</style><radialGradient id="radial-gradient" cx="97.65" cy="42.75" fx="118.29044901127234" fy="27.84388607273187" r="33.88" gradientUnits="userSpaceOnUse"><stop offset="0.09" stop-color="#fff"/><stop offset="0.93" stop-color="red"/></radialGradient><radialGradient id="radial-gradient-2" cx="45.65" cy="42.75" fx="66.29044901127234" r="33.88" xlink:href="#radial-gradient"/><radialGradient id="radial-gradient-3" cx="241.85" cy="116.93" fx="252.01249046934794" fy="109.59111899120361" r="16.68" gradientUnits="userSpaceOnUse"><stop offset="0.09" stop-color="#fff"/><stop offset="0.77" stop-color="#999"/></radialGradient><radialGradient id="radial-gradient-4" cx="172.85" cy="198.93" fx="183.01249046934794" fy="191.59111899120361" r="16.68" xlink:href="#radial-gradient-3"/><radialGradient id="radial-gradient-5" cx="71.85" cy="116.93" fx="82.01249046934794" r="16.68" xlink:href="#radial-gradient-3"/><radialGradient id="radial-gradient-6" cx="140.31" cy="198.82" fx="156.13549639618952" fy="187.39142506047793" r="25.98" gradientUnits="userSpaceOnUse"><stop offset="0.09" stop-color="#fff"/><stop offset="0.93" stop-color="blue"/></radialGradient><radialGradient id="radial-gradient-7" cx="214.24" cy="116.52" fx="227.62600368261832" fy="106.8491087910249" r="21.98" gradientUnits="userSpaceOnUse"><stop offset="0.09" stop-color="#fff"/><stop offset="0.77"/></radialGradient><radialGradient id="radial-gradient-8" cx="143.14" cy="42.8" fx="156.52846264991678" fy="33.138552287840085" r="21.98" xlink:href="#radial-gradient-7"/><radialGradient id="radial-gradient-9" cx="140.14" cy="116.8" fx="153.52846264991678" fy="107.13855228784008" r="21.98" xlink:href="#radial-gradient-7"/><radialGradient id="radial-gradient-10" cx="333.85" cy="207.93" fx="344.01249046934794" fy="200.59111899120361" r="16.68" xlink:href="#radial-gradient-3"/><radialGradient id="radial-gradient-11" cx="333.98" cy="175.24" fx="349.81214387789635" fy="163.81924431722328" r="25.98" xlink:href="#radial-gradient-6"/><radialGradient id="radial-gradient-12" cx="392.95" cy="79.32" fx="408.7793596378616" fy="67.89865097626026" r="25.98" xlink:href="#radial-gradient-6"/></defs><g id="Layer_2" data-name="Layer 2"><g id="Layer_1-2" data-name="Layer 1"><circle class="cls-1" cx="97.65" cy="42.75" r="33.88"/><text class="cls-2" transform="translate(87.77 52.14)">O</text><circle class="cls-3" cx="45.65" cy="42.75" r="33.88"/><text class="cls-2" transform="translate(35.77 52.14)">O</text><circle class="cls-4" cx="241.85" cy="116.93" r="16.68"/><text class="cls-5" transform="translate(236.1 123.39)">H</text><circle class="cls-6" cx="172.85" cy="198.93" r="16.68"/><text class="cls-5" transform="translate(167.1 205.39)">H</text><circle class="cls-7" cx="71.85" cy="116.93" r="16.68"/><text class="cls-5" transform="translate(66.1 123.39)">H</text><circle class="cls-8" cx="140.31" cy="198.82" r="25.98"/><text class="cls-9" transform="translate(130.86 207.83)">N</text><text class="cls-10" transform="translate(179.48 222.12)">3</text><text class="cls-2" transform="translate(0 23.86) scale(1.77 1)">-</text><text class="cls-2" transform="translate(189.44 193.69)">+</text><text class="cls-11" transform="translate(250.36 138.06)">2</text><circle class="cls-12" cx="214.24" cy="116.52" r="21.98"/><text class="cls-13" transform="translate(205.24 124.57)">C</text><circle class="cls-14" cx="143.14" cy="42.8" r="21.98"/><text class="cls-13" transform="translate(134.14 50.86)">C</text><circle class="cls-15" cx="140.14" cy="116.8" r="21.98"/><text class="cls-13" transform="translate(131.14 124.86)">C</text><line class="cls-16" x1="140.53" y1="69.91" x2="140.53" y2="89.91"/><line class="cls-16" x1="140.03" y1="145.91" x2="140.03" y2="165.91"/><line class="cls-16" x1="93.53" y1="116.91" x2="113.53" y2="116.91"/><line class="cls-16" x1="166.53" y1="117.41" x2="186.53" y2="117.41"/><line class="cls-16" x1="266.35" y1="117.09" x2="284.78" y2="117.09"/><circle class="cls-17" cx="333.85" cy="207.93" r="16.68"/><text class="cls-5" transform="translate(328.1 214.39)">H</text><line class="cls-16" x1="406.59" y1="147.45" x2="407.96" y2="110.46"/><line class="cls-16" x1="283.78" y1="117.46" x2="312.78" y2="153.46"/><line class="cls-16" x1="311.78" y1="59.46" x2="283.78" y2="118.46"/><circle class="cls-18" cx="333.98" cy="175.24" r="25.98"/><text class="cls-9" transform="translate(324.53 184.26)">N</text><circle class="cls-19" cx="392.95" cy="79.32" r="25.98"/><text class="cls-9" transform="translate(383.5 88.34)">N</text><line class="cls-16" x1="362.62" y1="173.57" x2="416.78" y2="151.46"/><line class="cls-16" x1="366.78" y1="60.46" x2="310.78" y2="60.46"/><line class="cls-16" x1="415.78" y1="152.46" x2="417.92" y2="98.42"/><line class="cls-16" x1="318.78" y1="68.46" x2="295.78" y2="117.46"/></g></g></svg>