<svg xmlns="http://www.w3.org/2000/svg" xmlns:xlink="http://www.w3.org/1999/xlink" viewBox="0 0 349.46 223.48"><defs><style>.cls-1,.cls-12,.cls-14,.cls-15,.cls-3,.cls-4,.cls-6,.cls-7,.cls-8{opacity:0.4;}.cls-1{fill:url(#radial-gradient);}.cls-2{font-size:28.51px;}.cls-10,.cls-11,.cls-13,.cls-2,.cls-5,.cls-9{font-family:MyriadPro-Regular, Myriad Pro;}.cls-3{fill:url(#radial-gradient-2);}.cls-4{fill:url(#radial-gradient-3);}.cls-5{font-size:18px;}.cls-6{fill:url(#radial-gradient-4);}.cls-7{fill:url(#radial-gradient-5);}.cls-8{fill:url(#radial-gradient-6);}.cls-9{font-size:26px;}.cls-10{font-size:25.44px;}.cls-11{font-size:25.68px;}.cls-12{fill:url(#radial-gradient-7);}.cls-13{font-size:24px;}.cls-14{fill:url(#radial-gradient-8);}.cls-15{fill:url(#radial-gradient-9);}.cls-16{fill:none;stroke:#000;stroke-miterlimit:10;stroke-width:3px;}</style><radialGradient id="radial-gradient" cx="186.48" cy="37.75" fx="207.1214413649941" fy="22.84388607273187" r="33.88" gradientUnits="userSpaceOnUse"><stop offset="0.09" stop-color="#fff"/><stop offset="0.93" stop-color="red"/></radialGradient><radialGradient id="radial-gradient-2" cx="134.48" cy="37.75" fx="155.1214413649941" r="33.88" xlink:href="#radial-gradient"/><radialGradient id="radial-gradient-3" cx="186.68" cy="111.93" fx="196.84348282306968" fy="104.59111899120361" r="16.68" gradientUnits="userSpaceOnUse"><stop offset="0.09" stop-color="#fff"/><stop offset="0.77" stop-color="#999"/></radialGradient><radialGradient id="radial-gradient-4" cx="117.68" cy="193.93" fx="127.84348282306968" fy="186.59111899120361" r="16.68" xlink:href="#radial-gradient-3"/><radialGradient id="radial-gradient-5" cx="16.68" cy="111.93" fx="26.843482823069678" r="16.68" xlink:href="#radial-gradient-3"/><radialGradient id="radial-gradient-6" cx="85.14" cy="193.82" fx="100.96648874991128" fy="182.39142506047793" r="25.98" gradientUnits="userSpaceOnUse"><stop offset="0.09" stop-color="#fff"/><stop offset="0.93" stop-color="blue"/></radialGradient><radialGradient id="radial-gradient-7" cx="159.07" cy="111.52" fx="172.45699603634006" fy="101.8491087910249" r="21.98" gradientUnits="userSpaceOnUse"><stop offset="0.09" stop-color="#fff"/><stop offset="0.77"/></radialGradient><radialGradient id="radial-gradient-8" cx="87.97" cy="37.8" fx="101.35945500363852" fy="28.13855228784009" r="21.98" xlink:href="#radial-gradient-7"/><radialGradient id="radial-gradient-9" cx="84.97" cy="111.8" fx="98.35945500363852" fy="102.13855228784008" r="21.98" xlink:href="#radial-gradient-7"/></defs><g id="Layer_2" data-name="Layer 2"><g id="Layer_1-2" data-name="Layer 1"><circle class="cls-1" cx="186.48" cy="37.75" r="33.88"/><text class="cls-2" transform="translate(176.6 47.14)">O</text><circle class="cls-3" cx="134.48" cy="37.75" r="33.88"/><text class="cls-2" transform="translate(124.6 47.14)">O</text><circle class="cls-4" cx="186.68" cy="111.93" r="16.68"/><text class="cls-5" transform="translate(180.93 118.39)">H</text><circle class="cls-6" cx="117.68" cy="193.93" r="16.68"/><text class="cls-5" transform="translate(111.93 200.39)">H</text><circle class="cls-7" cx="16.68" cy="111.93" r="16.68"/><text class="cls-5" transform="translate(10.93 118.39)">H</text><circle class="cls-8" cx="85.14" cy="193.82" r="25.98"/><text class="cls-9" transform="translate(75.69 202.83)">N</text><text class="cls-10" transform="translate(124.31 217.12)">3</text><text class="cls-2" transform="translate(217.83 23.86) scale(1.77 1)">-</text><text class="cls-2" transform="translate(134.27 188.69)">+</text><text class="cls-11" transform="translate(195.19 133.06)">2</text><circle class="cls-12" cx="159.07" cy="111.52" r="21.98"/><text class="cls-13" transform="translate(150.07 119.57)">C</text><circle class="cls-14" cx="87.97" cy="37.8" r="21.98"/><text class="cls-13" transform="translate(78.97 45.86)">C</text><circle class="cls-15" cx="84.97" cy="111.8" r="21.98"/><text class="cls-13" transform="translate(75.97 119.86)">C</text><line class="cls-16" x1="85.36" y1="64.91" x2="85.36" y2="84.91"/><line class="cls-16" x1="84.86" y1="140.91" x2="84.86" y2="160.91"/><line class="cls-16" x1="38.36" y1="111.91" x2="58.36" y2="111.91"/><line class="cls-16" x1="111.36" y1="112.41" x2="131.36" y2="112.41"/><line class="cls-16" x1="209.19" y1="112.09" x2="227.61" y2="112.09"/><polygon class="cls-16" points="317.42 59.45 256.8 59.45 226.49 111.95 256.8 164.46 317.42 164.46 347.73 111.95 317.42 59.45"/><line class="cls-16" x1="238.85" y1="111.99" x2="263.61" y2="69.46"/><line class="cls-16" x1="335.39" y1="112.05" x2="310.78" y2="69.43"/><line class="cls-16" x1="262.48" y1="155.74" x2="311.69" y2="155.74"/></g></g></svg>